PathFileType	4	(X/Y/Z)	E:\Dropbox\SEL\BOX\Experiment\240124_SUB1_PJH\c3d\XYZ\Static.trc
DataRate	CameraRate	NumFrames	NumMarkers	Units	OrigDataRate	OrigDataStartFrame	OrigNumFrames
100	100	7	59	m	100	1	228
Frame#	Time	LFHD			LBHD			LSHO			CLAV			STRN			C7			T10			LUPA			LELB			LFRA			LWRA			LWRB			LFN2			LFN5			LASI			LPSI			LGTR			LKNE			LMFC			LLTP			LMTP			LANK			LMMA			LTOE			LMT5			LHEE			LTA_BOX			LTP_BOX			LBA_BOX			LBP_BOX			LHN_BOX			RFHD			RBHD			RSHO			RBAK			RUPA			RELB			RFRA			RWRA			RWRB			RFN2			RFN5			RASI			RPSI			RGTR			RKNE			RMFC			RLTP			RMTP			RANK			RMMA			RTOE			RMT5			RHEE			RTA_BOX			RTP_BOX			RBA_BOX			RBP_BOX			RHN_BOX		
		X1	Y1	Z1	X2	Y2	Z2	X3	Y3	Z3	X4	Y4	Z4	X5	Y5	Z5	X6	Y6	Z6	X7	Y7	Z7	X8	Y8	Z8	X9	Y9	Z9	X10	Y10	Z10	X11	Y11	Z11	X12	Y12	Z12	X13	Y13	Z13	X14	Y14	Z14	X15	Y15	Z15	X16	Y16	Z16	X17	Y17	Z17	X18	Y18	Z18	X19	Y19	Z19	X20	Y20	Z20	X21	Y21	Z21	X22	Y22	Z22	X23	Y23	Z23	X24	Y24	Z24	X25	Y25	Z25	X26	Y26	Z26	X27	Y27	Z27	X28	Y28	Z28	X29	Y29	Z29	X30	Y30	Z30	X31	Y31	Z31	X32	Y32	Z32	X33	Y33	Z33	X34	Y34	Z34	X35	Y35	Z35	X36	Y36	Z36	X37	Y37	Z37	X38	Y38	Z38	X39	Y39	Z39	X40	Y40	Z40	X41	Y41	Z41	X42	Y42	Z42	X43	Y43	Z43	X44	Y44	Z44	X45	Y45	Z45	X46	Y46	Z46	X47	Y47	Z47	X48	Y48	Z48	X49	Y49	Z49	X50	Y50	Z50	X51	Y51	Z51	X52	Y52	Z52	X53	Y53	Z53	X54	Y54	Z54	X55	Y55	Z55	X56	Y56	Z56	X57	Y57	Z57	X58	Y58	Z58	X59	Y59	Z59	

1	0.000000	0.326340	1.696980	0.234697	0.330060	1.657470	0.359275	0.264089	1.454094	0.287128	0.414999	1.418777	0.178174	0.410929	1.197945	0.104693	0.409908	1.461157	0.330287	0.396793	1.178411	0.362961	0.062711	1.363821	0.310427	-0.018476	1.330847	0.306870	-0.177480	1.314084	0.286313	-0.255048	1.348563	0.211286	-0.256970	1.290251	0.264576	-0.353923	1.329005	0.238993	-0.321414	1.260157	0.247889	0.279048	0.944289	0.175428	0.361066	0.955447	0.372946	0.228034	0.888796	0.269392	0.240867	0.495433	0.255829	0.352296	0.465167	0.240923	0.232082	0.445146	0.291179	0.357420	0.428010	0.264831	0.228417	0.077735	0.347309	0.331213	0.098437	0.310082	0.244912	0.049800	0.193178	0.189492	0.035832	0.240981	0.279343	0.028964	0.401662	0.194450	0.531751	-0.174030	0.194087	0.530114	0.107961	0.168003	0.256363	-0.174434	0.168727	0.254786	0.106334	0.280843	0.423388	-0.034030	0.486116	1.698182	0.242367	0.482031	1.661496	0.362745	0.563723	1.450858	0.278232	0.497272	1.297033	0.380359	0.674327	1.431061	0.288315	0.849533	1.322395	0.295253	0.938060	1.325229	0.300108	1.087012	1.371965	0.229871	1.086587	1.315480	0.274247	1.176391	1.359216	0.260800	1.152484	1.280142	0.259230	0.527105	0.943691	0.160622	0.470503	0.956073	0.360314	0.585210	0.890676	0.241722	0.572113	0.483547	0.243205	0.447996	0.474170	0.242557	0.579648	0.449560	0.264757	0.453863	0.415830	0.272373	0.583586	0.082261	0.334011	0.480305	0.094444	0.324922	0.558881	0.048891	0.186012	0.610642	0.038127	0.216550	0.539765	0.048089	0.393619	0.576256	0.533185	-0.172066	0.575523	0.531416	0.109597	0.603052	0.257387	-0.172964	0.601510	0.255220	0.107558	0.488666	0.425212	-0.030973	
2	0.010000	0.326307	1.696975	0.234649	0.330001	1.657494	0.359239	0.264037	1.454070	0.287145	0.414975	1.418750	0.178193	0.410857	1.197914	0.104853	0.409857	1.461178	0.330311	0.396790	1.178415	0.363024	0.062650	1.363829	0.310429	-0.018536	1.330874	0.306867	-0.177541	1.314152	0.286249	-0.255056	1.348651	0.211120	-0.257017	1.290373	0.264478	-0.353950	1.329162	0.238868	-0.321485	1.260282	0.247793	0.279097	0.944263	0.175508	0.361105	0.955432	0.373014	0.228083	0.888800	0.269450	0.240887	0.495435	0.255843	0.352317	0.465163	0.240925	0.232129	0.445146	0.291185	0.357418	0.428008	0.264814	0.228422	0.077730	0.347307	0.331218	0.098432	0.310090	0.244911	0.049798	0.193175	0.189495	0.035830	0.240981	0.279344	0.028961	0.401664	0.194451	0.531748	-0.174028	0.194085	0.530116	0.107967	0.168001	0.256363	-0.174431	0.168726	0.254785	0.106336	0.280842	0.423389	-0.034025	0.486082	1.698171	0.242352	0.481959	1.661508	0.362741	0.563690	1.450893	0.278285	0.497243	1.297071	0.380429	0.674301	1.431090	0.288395	0.849498	1.322415	0.295354	0.938024	1.325236	0.300255	1.087006	1.371936	0.230028	1.086556	1.315476	0.274435	1.176368	1.359186	0.260994	1.152459	1.280129	0.259438	0.527155	0.943742	0.160770	0.470545	0.956067	0.360394	0.585269	0.890662	0.241773	0.572169	0.483542	0.243220	0.448025	0.474179	0.242568	0.579670	0.449561	0.264771	0.453891	0.415831	0.272380	0.583588	0.082259	0.334013	0.480306	0.094447	0.324926	0.558882	0.048892	0.186010	0.610644	0.038128	0.216549	0.539764	0.048084	0.393615	0.576257	0.533184	-0.172065	0.575525	0.531414	0.109597	0.603053	0.257386	-0.172964	0.601511	0.255221	0.107560	0.488664	0.425217	-0.030970	
3	0.020000	0.326277	1.696972	0.234605	0.329943	1.657522	0.359207	0.263984	1.454046	0.287169	0.414946	1.418712	0.178218	0.410771	1.197883	0.105006	0.409803	1.461196	0.330340	0.396788	1.178420	0.363090	0.062589	1.363850	0.310429	-0.018602	1.330924	0.306860	-0.177609	1.314251	0.286183	-0.255073	1.348779	0.210990	-0.257067	1.290534	0.264362	-0.353987	1.329355	0.238743	-0.321564	1.260443	0.247689	0.279148	0.944245	0.175584	0.361142	0.955420	0.373084	0.228136	0.888813	0.269517	0.240900	0.495434	0.255853	0.352332	0.465159	0.240919	0.232167	0.445148	0.291192	0.357424	0.428005	0.264809	0.228426	0.077727	0.347307	0.331220	0.098428	0.310100	0.244910	0.049794	0.193172	0.189497	0.035828	0.240981	0.279345	0.028958	0.401665	0.194453	0.531742	-0.174027	0.194086	0.530117	0.107970	0.167998	0.256362	-0.174429	0.168725	0.254786	0.106339	0.280841	0.423390	-0.034025	0.486051	1.698157	0.242338	0.481888	1.661523	0.362737	0.563657	1.450926	0.278336	0.497213	1.297108	0.380498	0.674275	1.431123	0.288467	0.849465	1.322444	0.295451	0.937989	1.325255	0.300396	1.086999	1.371909	0.230176	1.086523	1.315480	0.274617	1.176347	1.359161	0.261174	1.152421	1.280131	0.259636	0.527229	0.943802	0.160836	0.470587	0.956060	0.360477	0.585322	0.890648	0.241831	0.572216	0.483540	0.243237	0.448053	0.474187	0.242577	0.579696	0.449563	0.264789	0.453920	0.415832	0.272388	0.583591	0.082257	0.334016	0.480310	0.094449	0.324926	0.558881	0.048894	0.186007	0.610647	0.038128	0.216547	0.539765	0.048080	0.393613	0.576261	0.533183	-0.172064	0.575526	0.531412	0.109598	0.603054	0.257384	-0.172964	0.601514	0.255223	0.107563	0.488664	0.425221	-0.030963	
4	0.030000	0.326251	1.696970	0.234564	0.329888	1.657556	0.359178	0.263932	1.454023	0.287200	0.414912	1.418667	0.178256	0.410701	1.197854	0.105147	0.409748	1.461213	0.330377	0.396782	1.178425	0.363159	0.062523	1.363880	0.310428	-0.018674	1.330995	0.306851	-0.177683	1.314382	0.286110	-0.255096	1.348945	0.210886	-0.257129	1.290721	0.264241	-0.354032	1.329576	0.238613	-0.321653	1.260641	0.247579	0.279201	0.944241	0.175657	0.361174	0.955410	0.373157	0.228189	0.888837	0.269592	0.240930	0.495435	0.255869	0.352338	0.465155	0.240898	0.232197	0.445148	0.291197	0.357434	0.427999	0.264810	0.228426	0.077726	0.347314	0.331222	0.098424	0.310106	0.244909	0.049791	0.193171	0.189500	0.035826	0.240982	0.279348	0.028954	0.401668	0.194455	0.531735	-0.174026	0.194088	0.530117	0.107973	0.167996	0.256361	-0.174428	0.168725	0.254788	0.106343	0.280841	0.423389	-0.034026	0.486021	1.698140	0.242323	0.481819	1.661542	0.362734	0.563625	1.450958	0.278387	0.497182	1.297143	0.380567	0.674249	1.431157	0.288530	0.849436	1.322482	0.295545	0.937957	1.325283	0.300528	1.086992	1.371882	0.230309	1.086490	1.315494	0.274789	1.176330	1.359143	0.261335	1.152375	1.280141	0.259825	0.527296	0.943848	0.160876	0.470626	0.956051	0.360562	0.585369	0.890635	0.241901	0.572256	0.483540	0.243255	0.448080	0.474195	0.242583	0.579725	0.449564	0.264806	0.453949	0.415831	0.272397	0.583596	0.082255	0.334021	0.480315	0.094452	0.324928	0.558881	0.048896	0.186002	0.610652	0.038128	0.216545	0.539767	0.048077	0.393614	0.576268	0.533182	-0.172061	0.575525	0.531412	0.109600	0.603055	0.257382	-0.172962	0.601516	0.255224	0.107566	0.488666	0.425222	-0.030956	
5	0.040000	0.326226	1.696968	0.234521	0.329838	1.657594	0.359150	0.263880	1.454000	0.287241	0.414877	1.418625	0.178301	0.410658	1.197826	0.105278	0.409694	1.461230	0.330423	0.396772	1.178431	0.363233	0.062451	1.363922	0.310427	-0.018753	1.331084	0.306840	-0.177760	1.314540	0.286023	-0.255129	1.349129	0.210780	-0.257208	1.290930	0.264130	-0.354084	1.329822	0.238473	-0.321750	1.260871	0.247464	0.279259	0.944249	0.175733	0.361198	0.955402	0.373234	0.228233	0.888862	0.269669	0.240954	0.495435	0.255880	0.352330	0.465152	0.240853	0.232219	0.445143	0.291200	0.357446	0.427993	0.264813	0.228426	0.077726	0.347324	0.331225	0.098419	0.310104	0.244908	0.049791	0.193171	0.189504	0.035826	0.240982	0.279351	0.028952	0.401672	0.194458	0.531730	-0.174026	0.194091	0.530117	0.107974	0.167996	0.256361	-0.174428	0.168724	0.254790	0.106346	0.280842	0.423385	-0.034029	0.485994	1.698122	0.242306	0.481753	1.661566	0.362732	0.563593	1.450987	0.278436	0.497150	1.297176	0.380637	0.674222	1.431193	0.288585	0.849409	1.322526	0.295634	0.937927	1.325319	0.300650	1.086984	1.371855	0.230418	1.086458	1.315515	0.274947	1.176315	1.359132	0.261473	1.152325	1.280149	0.260014	0.527350	0.943879	0.160919	0.470661	0.956039	0.360647	0.585412	0.890623	0.241978	0.572292	0.483541	0.243272	0.448107	0.474203	0.242591	0.579753	0.449564	0.264817	0.453977	0.415831	0.272406	0.583602	0.082254	0.334025	0.480322	0.094454	0.324929	0.558882	0.048898	0.185999	0.610658	0.038128	0.216543	0.539771	0.048074	0.393615	0.576277	0.533182	-0.172057	0.575525	0.531413	0.109601	0.603056	0.257381	-0.172958	0.601518	0.255224	0.107568	0.488671	0.425218	-0.030955	
6	0.050000	0.326204	1.696965	0.234479	0.329791	1.657640	0.359124	0.263828	1.453982	0.287292	0.414844	1.418591	0.178346	0.410634	1.197799	0.105397	0.409641	1.461248	0.330476	0.396757	1.178441	0.363309	0.062374	1.363976	0.310426	-0.018838	1.331189	0.306826	-0.177836	1.314723	0.285928	-0.255181	1.349314	0.210645	-0.257300	1.291158	0.264025	-0.354141	1.330088	0.238321	-0.321847	1.261130	0.247342	0.279318	0.944269	0.175822	0.361213	0.955399	0.373317	0.228269	0.888877	0.269738	0.240948	0.495429	0.255879	0.352312	0.465150	0.240790	0.232236	0.445139	0.291203	0.357459	0.427987	0.264817	0.228427	0.077727	0.347330	0.331227	0.098414	0.310100	0.244906	0.049792	0.193171	0.189508	0.035826	0.240980	0.279353	0.028952	0.401678	0.194461	0.531728	-0.174028	0.194095	0.530115	0.107972	0.167997	0.256362	-0.174429	0.168726	0.254788	0.106348	0.280844	0.423379	-0.034031	0.485969	1.698102	0.242289	0.481695	1.661595	0.362730	0.563560	1.451013	0.278484	0.497117	1.297208	0.380709	0.674194	1.431229	0.288633	0.849384	1.322572	0.295719	0.937899	1.325360	0.300759	1.086973	1.371831	0.230501	1.086426	1.315541	0.275086	1.176298	1.359129	0.261589	1.152274	1.280153	0.260205	0.527397	0.943901	0.160962	0.470690	0.956028	0.360735	0.585451	0.890615	0.242060	0.572324	0.483541	0.243287	0.448134	0.474210	0.242600	0.579779	0.449561	0.264823	0.454005	0.415831	0.272414	0.583607	0.082254	0.334030	0.480328	0.094454	0.324929	0.558883	0.048899	0.185998	0.610663	0.038127	0.216542	0.539775	0.048073	0.393616	0.576283	0.533181	-0.172051	0.575526	0.531414	0.109601	0.603057	0.257381	-0.172955	0.601520	0.255223	0.107568	0.488678	0.425211	-0.030958	
7	0.060000	0.326185	1.696962	0.234439	0.329746	1.657692	0.359100	0.263778	1.453969	0.287351	0.414812	1.418565	0.178396	0.410620	1.197775	0.105510	0.409586	1.461265	0.330532	0.396740	1.178454	0.363389	0.062292	1.364042	0.310425	-0.018927	1.331306	0.306809	-0.177915	1.314926	0.285834	-0.255243	1.349509	0.210509	-0.257404	1.291397	0.263924	-0.354202	1.330370	0.238155	-0.321941	1.261415	0.247222	0.279369	0.944308	0.175943	0.361212	0.955403	0.373407	0.228300	0.888883	0.269802	0.240928	0.495421	0.255873	0.352297	0.465150	0.240741	0.232250	0.445136	0.291206	0.357468	0.427981	0.264821	0.228428	0.077726	0.347332	0.331224	0.098410	0.310102	0.244904	0.049793	0.193171	0.189510	0.035827	0.240980	0.279349	0.028951	0.401683	0.194462	0.531727	-0.174029	0.194098	0.530114	0.107969	0.167997	0.256363	-0.174428	0.168728	0.254785	0.106349	0.280846	0.423373	-0.034031	0.485947	1.698081	0.242272	0.481645	1.661628	0.362728	0.563526	1.451033	0.278528	0.497084	1.297238	0.380782	0.674167	1.431263	0.288678	0.849359	1.322616	0.295797	0.937872	1.325403	0.300857	1.086957	1.371815	0.230563	1.086393	1.315569	0.275204	1.176278	1.359132	0.261682	1.152222	1.280156	0.260397	0.527443	0.943919	0.160999	0.470714	0.956018	0.360825	0.585485	0.890614	0.242148	0.572350	0.483540	0.243296	0.448159	0.474217	0.242609	0.579801	0.449557	0.264823	0.454031	0.415832	0.272422	0.583611	0.082253	0.334032	0.480335	0.094452	0.324928	0.558884	0.048900	0.185998	0.610667	0.038128	0.216542	0.539779	0.048074	0.393619	0.576287	0.533181	-0.172043	0.575526	0.531415	0.109601	0.603057	0.257382	-0.172952	0.601519	0.255222	0.107566	0.488687	0.425202	-0.030963	
